# xmcd
#
# Track frame offsets:
# 150
# 13753
# 30404
# 48278
# 71554
# 84823
# 100218
# 121024
# 134658
# 151133
# 167757
# 177839
# 198277
# 212249
# 230021
# 245559
# 262284
# 276238
# 292973
# 310968
#
# Disc length: 4365 seconds
#
#
# Revision: 0
# Processed by: cddbd v1.5.2PL0 Copyright (c) Steve Scherf et al.
# Submitted via: FreeRIP 2.945 
#
DISCID=1b110b14
DTITLE=Various Artist - Westerbro LineDance - Øvede 2
DYEAR=2008
DGENRE=Country
TTITLE0=Heather Myles - Little chapel
TTITLE1=Lee Ann Womack - I keep forgetting
TTITLE2=Chayenne - Mariana Mambo
TTITLE3=The Mavericks - Children
TTITLE4=Jake Mathews - My heart won't let you leave my mind
TTITLE5=Burton Cummings - Your back yard
TTITLE6=MDO - Groove with me tonight
TTITLE7=Ronan Hardiman - Dance above the rainbow
TTITLE8=Sugar babe - Push the button
TTITLE9=Infernal - Self control
TTITLE10=Patsy Cline - Seven lonely days
TTITLE11=Ciega Sordomuda - Shakira
TTITLE12=Joni Harms - We work it out
TTITLE13=Soluna - Monday mi Amor
TTITLE14=Blake Shelton - Some beach
TTITLE15=Vince Gill - Someday
TTITLE16=Heather Myles - Sweet little dangerous
TTITLE17=Darryll Worley - I need breather
TTITLE18=Johnny Logan - dirty old town
TTITLE19=Fredrik Kempe - Vincero
EXTD=
EXTT0=
EXTT1=
EXTT2=
EXTT3=
EXTT4=
EXTT5=
EXTT6=
EXTT7=
EXTT8=
EXTT9=
EXTT10=
EXTT11=
EXTT12=
EXTT13=
EXTT14=
EXTT15=
EXTT16=
EXTT17=
EXTT18=
EXTT19=
PLAYORDER=
